HIERARCHY
ROOT ROOT
{
	OFFSET 0.000000 56.020000 -5.659234
	CHANNELS 6 Xposition Yposition Zposition Xrotation Yrotation Zrotation 
	JOINT C_spine0001_bind_JNT
	{
		OFFSET 0.000000 1.618999 0.000000
		CHANNELS 3 Xrotation Yrotation Zrotation
		JOINT C_spine0002_bind_JNT
		{
			OFFSET 0.000000 4.942001 0.000001
			CHANNELS 3 Xrotation Yrotation Zrotation
			JOINT C_spine0003_bind_JNT
			{
				OFFSET 0.000000 4.942001 -0.000000
				CHANNELS 3 Xrotation Yrotation Zrotation
				JOINT C_neck0001_bind_JNT
				{
					OFFSET 0.000000 17.026009 -0.000000
					CHANNELS 3 Xrotation Yrotation Zrotation
					JOINT C_neck0002_bind_JNT
					{
						OFFSET 0.000000 3.249985 0.000000
						CHANNELS 3 Xrotation Yrotation Zrotation
						JOINT C_head_bind_JNT
						{
							OFFSET 0.000000 5.278008 0.000000
							CHANNELS 3 Xrotation Yrotation Zrotation
							End Site
							{
								OFFSET 0.000000 0.000000 0.000000
							}
						}
					}
				}
				JOINT L_clavicle_bind_JNT
				{
					OFFSET 4.590000 12.067001 0.834000
					CHANNELS 3 Xrotation Yrotation Zrotation
					JOINT L_armUpper0001_bind_JNT
					{
						OFFSET 7.812635 0.512001 -3.452945
						CHANNELS 3 Xrotation Yrotation Zrotation
						JOINT L_armLower0001_bind_JNT
						{
							OFFSET 15.265892 -6.552116 -0.058157
							CHANNELS 3 Xrotation Yrotation Zrotation
							JOINT L_hand0001_bind_JNT
							{
								OFFSET 14.747667 -6.369995 5.049225
								CHANNELS 3 Xrotation Yrotation Zrotation
								End Site
								{
									OFFSET 0.000000 0.000000 0.000000
								}
							}
						}
					}
				}
				JOINT R_clavicle_bind_JNT
				{
					OFFSET -4.590000 12.067001 0.834000
					CHANNELS 3 Xrotation Yrotation Zrotation
					JOINT R_armUpper0001_bind_JNT
					{
						OFFSET -7.812635 0.512001 -3.452945
						CHANNELS 3 Xrotation Yrotation Zrotation
						JOINT R_armLower0001_bind_JNT
						{
							OFFSET -15.265890 -6.552124 -0.058160
							CHANNELS 3 Xrotation Yrotation Zrotation
							JOINT R_hand0001_bind_JNT
							{
								OFFSET -14.746784 -6.369629 5.048937
								CHANNELS 3 Xrotation Yrotation Zrotation
								End Site
								{
									OFFSET 0.000000 0.000000 0.000000
								}
							}
						}
					}
				}
			}
		}
	}
	JOINT C_pelvis0001_bind_JNT
	{
		OFFSET -0.000000 0.000000 0.000000
		CHANNELS 3 Xrotation Yrotation Zrotation
		JOINT L_legUpper0001_bind_JNT
		{
			OFFSET 6.599999 -6.027000 0.539000
			CHANNELS 3 Xrotation Yrotation Zrotation
			JOINT L_legLower0001_bind_JNT
			{
				OFFSET -0.140713 -19.187443 0.040261
				CHANNELS 3 Xrotation Yrotation Zrotation
				JOINT L_foot0001_bind_JNT
				{
					OFFSET -0.132215 -18.028637 -1.138370
					CHANNELS 3 Xrotation Yrotation Zrotation
					JOINT L_foot0002_bind_JNT
					{
						OFFSET 0.007014 -4.693133 9.886524
						CHANNELS 3 Xrotation Yrotation Zrotation
						End Site
						{
							OFFSET 0.000000 0.000000 0.000000
						}
					}
				}
			}
		}
		JOINT R_legUpper0001_bind_JNT
		{
			OFFSET -6.599999 -6.027000 0.539000
			CHANNELS 3 Xrotation Yrotation Zrotation
			JOINT R_legLower0001_bind_JNT
			{
				OFFSET 0.140710 -19.187164 0.040550
				CHANNELS 3 Xrotation Yrotation Zrotation
				JOINT R_foot0001_bind_JNT
				{
					OFFSET 0.132215 -18.028633 -1.138362
					CHANNELS 3 Xrotation Yrotation Zrotation
					JOINT R_foot0002_bind_JNT
					{
						OFFSET -0.007014 -4.693128 9.886505
						CHANNELS 3 Xrotation Yrotation Zrotation
						End Site
						{
							OFFSET 0.000000 0.000000 0.000000
						}
					}
				}
			}
		}
	}
}
MOTION
Frames: 12
Frame Time: 0.033333
0.891317 48.616783 23.607296 0.024014 3.410312 -0.031621 5.268543 2.079925 0.852010 -5.513963 0.186183 0.529547 3.818581 0.220832 1.228446 10.321099 -3.499108 1.636567 -0.292359 -0.154299 0.106656 -17.180199 -7.077435 1.754554 3.413671 -2.249489 0.316930 -9.238735 -6.040190 -62.003231 2.640152 14.133484 -6.245441 -0.604649 -8.466165 -23.871590 -2.613483 4.376971 2.918261 -12.493093 7.877620 57.468998 13.670705 -18.437359 2.762902 -1.508530 10.490124 25.233234 6.726106 1.558838 0.460565 -21.074961 0.075768 3.488683 57.011471 1.253284 -2.812364 2.996681 -1.206261 -5.100533 -14.869806 -1.026719 0.939775 -9.531224 -0.402684 1.248233 15.612619 -0.444582 0.621551 -6.292701 2.025921 -1.367471 -6.652024 0.682030 -0.531647 
0.865899 48.842361 24.673149 0.016369 3.647285 -0.021540 5.263133 2.197531 1.018840 -5.502453 0.430459 0.374839 3.829117 0.498366 1.125806 10.150775 -3.681297 1.613177 -0.354311 -0.181872 0.103935 -17.297388 -7.209537 1.385756 3.181108 -2.318601 -0.320206 -8.910666 -5.451376 -61.005524 2.841801 13.853843 -6.624424 -0.957290 -8.080823 -23.866093 -3.267079 4.392272 3.451307 -12.816428 8.469929 56.808647 13.094769 -17.721909 2.715140 -1.448997 10.278949 25.158493 6.880868 1.353372 1.605006 -23.854839 -0.121566 2.356468 54.118633 1.513255 -3.022469 1.260509 -0.196607 -4.656346 -15.622088 -1.229056 0.050525 -7.502754 -0.158821 0.035331 13.604918 -0.860862 0.646058 -5.623377 2.500066 -1.153546 -7.366589 0.808495 -0.651994 
0.865422 48.993916 25.774961 0.022426 3.736391 -0.033242 5.620926 2.416947 1.068921 -5.577165 0.647584 0.299072 3.641647 0.629301 1.107476 10.078549 -3.748605 1.386198 -0.387723 -0.170763 0.086361 -17.449247 -7.484596 1.136173 3.127665 -2.384156 -0.741261 -8.792078 -4.845896 -60.297070 3.095944 13.683608 -6.999648 -1.120742 -7.843646 -23.962866 -3.657155 4.325280 3.766375 -13.203575 9.026796 56.013744 12.693727 -16.710411 2.867619 -1.648024 10.252034 25.344112 7.160953 1.074178 2.266423 -25.961016 0.349878 1.706997 48.931995 1.618744 -2.660008 0.022327 -0.082665 -4.062263 -13.935431 -1.111790 -0.616847 -5.574126 0.406617 -0.750694 11.710629 -1.253471 1.128109 -5.083783 2.788774 -1.312670 -8.090781 0.763143 -0.926602 
0.874030 48.987656 26.977320 0.028957 3.611836 -0.019191 6.003949 2.633173 0.945872 -5.642208 0.774362 0.341070 3.593039 0.732840 0.979211 9.754616 -3.854285 1.551256 -0.410242 -0.032918 -0.026035 -17.970020 -7.654651 0.967023 3.083844 -2.344098 -0.640148 -8.766231 -4.469532 -60.583118 3.097019 13.915433 -6.688865 -1.038468 -7.732353 -24.090366 -3.771067 4.332140 3.577051 -13.965243 9.108269 56.032394 11.914636 -15.423208 2.985014 -1.494401 10.119113 25.340796 7.582342 0.922246 2.400638 -28.064493 1.281031 1.489524 41.413074 1.266813 -1.607200 0.167307 -0.091313 -3.631756 -10.888592 -1.384564 -0.801834 -3.839547 1.143561 -0.862167 10.780626 -1.624097 1.149320 -5.489288 2.691134 -1.190609 -8.820096 0.757183 -1.322975 
0.959559 48.896168 28.157888 0.017572 3.642328 -0.022565 6.679297 2.517334 0.838892 -5.764723 0.859359 0.349595 3.570570 0.773595 1.093813 9.414252 -3.885479 1.314836 -0.359276 -0.090466 0.110058 -18.634439 -7.588110 0.649828 3.196284 -2.126648 -0.481594 -9.127053 -4.283100 -61.040340 3.116067 14.183033 -6.629101 -0.903914 -7.929159 -24.235077 -3.579635 4.124820 3.125869 -14.789213 9.442613 55.757156 11.264365 -13.854826 3.385673 -1.833052 10.566267 25.556438 8.462332 0.684230 2.301014 -29.021397 2.386681 1.672053 32.759247 0.212884 -0.632450 0.069931 -0.545806 -3.680619 -7.262986 -1.178618 -0.862786 -3.022061 1.699000 -0.775914 9.929920 -1.580152 1.402251 -5.951953 2.676713 -1.274383 -9.086346 0.878588 -1.743207 
1.087407 48.540718 29.543737 0.014231 3.631335 -0.025785 6.852797 2.275929 0.749359 -5.561958 0.969373 0.326215 3.527910 0.926673 1.167836 9.167613 -4.061655 1.285318 -0.487355 0.006402 -0.012126 -19.328592 -7.735104 0.223627 3.713744 -1.892190 0.318029 -9.352204 -4.622657 -62.205276 3.072951 14.340451 -6.298666 -0.828927 -7.937078 -24.314077 -2.993836 3.410936 2.343972 -15.922239 9.955434 55.800907 10.415319 -12.477945 3.905085 -2.041441 11.318545 25.639410 8.875196 0.094316 1.714470 -28.928892 4.287260 2.304966 21.766197 -1.276933 -0.163849 0.707224 -1.165334 -4.432518 -5.170810 -1.730748 -1.021015 -1.360990 2.505775 -0.106953 9.289905 -1.680605 1.409727 -6.911064 2.456037 -1.210502 -9.351992 1.022938 -2.275685 
1.288283 48.130962 31.266409 0.026037 3.614890 -0.038017 7.041122 1.858258 0.563290 -5.361122 1.099091 0.277773 3.494383 0.819165 1.299169 8.818617 -3.962406 1.136243 -0.467743 -0.050319 0.117516 -19.687902 -7.651582 -0.035208 4.447321 -1.362538 1.109020 -10.005116 -4.790921 -63.245842 3.377430 14.720641 -5.996421 -0.754631 -8.115373 -24.435099 -2.145207 2.732805 1.345503 -17.080149 10.193203 56.020042 9.583179 -11.111093 4.250530 -2.177715 11.766011 25.762869 9.205697 -0.612554 0.805051 -28.257586 6.544475 2.996157 11.663682 -2.680030 -0.338965 1.871825 -2.163838 -4.397236 -5.477513 -1.743963 -1.184898 0.334168 2.900934 0.848077 8.840367 -1.359897 1.227284 -8.553926 2.383031 -1.098134 -9.215418 1.158289 -2.514507 
1.440730 47.753654 33.106968 0.017484 3.300856 -0.029023 7.293044 1.624100 0.109111 -5.444089 1.224467 0.340298 3.605192 0.814613 1.328045 8.518108 -3.862230 1.256932 -0.397737 -0.043027 -0.001273 -20.142717 -7.523695 0.111334 4.833113 -1.107969 1.400651 -10.066574 -4.956752 -63.627449 3.540771 15.080002 -5.672955 -0.199241 -8.107460 -24.219652 -1.740693 2.272573 1.270210 -17.677809 10.405205 55.543827 9.138266 -10.296800 4.686470 -2.163424 12.475900 25.524708 9.460554 -1.175848 0.269561 -28.410397 9.222895 3.433522 5.022439 -4.689143 -0.560664 0.738351 -2.742122 -5.163023 -5.135664 -1.899778 -1.517740 2.399676 3.343552 1.268522 8.683570 -1.258358 1.196434 -9.963988 2.583371 -0.698651 -9.800492 1.181978 -3.077242 
1.583198 47.547897 34.888706 0.021942 3.399305 -0.034527 7.568715 1.090070 -0.094932 -5.352458 1.216080 0.221045 3.621667 0.869913 1.282593 8.336545 -3.759075 1.353287 -0.410735 0.011011 0.016216 -20.264011 -7.595519 0.143072 4.855479 -1.151516 0.973169 -9.850414 -5.055805 -63.160381 3.661321 15.413062 -5.298971 -0.098348 -8.077667 -24.570786 -1.567222 2.055526 1.749447 -17.740656 10.347050 55.088631 8.793707 -10.018266 4.805812 -2.237158 12.915204 24.935333 9.268149 -1.825934 0.364213 -29.237234 10.523353 3.094165 2.543044 -5.889967 -0.706517 -0.544255 -3.143491 -5.352087 -3.788938 -1.985975 -1.442271 4.546608 3.214037 1.000573 8.575658 -1.109783 0.967244 -10.695539 2.667894 -0.082089 -10.844553 1.385794 -3.352654 
1.726334 47.493195 36.712276 0.019384 3.403243 -0.036341 7.897719 0.270967 -0.469718 -5.455902 1.383894 0.287901 3.592682 0.970295 1.168035 8.293003 -3.587571 1.371592 -0.367507 -0.053546 0.009621 -20.373739 -7.331965 0.524182 4.593645 -1.200472 -0.027426 -9.613411 -5.536440 -62.351673 3.831065 16.166344 -5.148749 0.142015 -8.408860 -24.386358 -1.742220 2.611738 2.718274 -16.951908 9.458137 54.447281 8.948576 -10.024470 4.915726 -2.385953 13.348120 24.224152 9.159987 -2.631785 0.965647 -29.924238 11.047713 1.974696 2.957708 -6.314947 -0.579322 -0.891365 -3.835768 -4.572216 -2.405683 -1.716726 -1.162053 5.993343 2.917033 0.267993 9.826397 -0.961480 0.568596 -10.869747 3.227676 0.760811 -13.197867 1.653122 -4.008346 
1.803673 47.502804 38.596809 0.020538 2.962759 -0.038627 7.961821 -0.015211 -0.836972 -5.528468 1.409592 0.164106 3.385432 1.241028 1.185230 8.320270 -3.540241 1.312018 -0.331688 -0.020248 -0.090159 -20.197571 -7.281018 0.506793 4.357877 -1.576408 -1.576521 -9.309375 -5.397875 -61.089783 4.258479 16.790203 -5.001995 0.286642 -8.762822 -24.496853 -2.005543 3.227641 3.917088 -15.481521 8.175915 53.857887 9.173233 -10.526499 4.852184 -2.748656 13.998453 23.834925 8.878919 -3.091249 1.632390 -30.907488 10.306704 0.680058 6.290126 -5.514288 0.280119 0.850163 -4.215520 -3.428433 -1.304461 -1.903920 -1.037904 6.977239 2.188291 -0.757021 11.627703 -0.335289 0.440841 -10.147470 3.738339 1.502979 -16.517923 2.004758 -4.667527 
1.991058 47.568069 40.884251 0.025455 2.808430 -0.042276 7.692131 -0.631504 -0.779313 -5.694808 1.537074 0.034299 3.340765 1.477107 0.820251 8.480855 -3.583952 1.415452 -0.306031 -0.018535 -0.109046 -19.791670 -7.154109 0.683410 4.257949 -1.709163 -2.372050 -9.146598 -5.305752 -60.027065 4.541789 17.506088 -4.910112 0.614086 -9.399786 -24.414478 -2.182732 3.643158 4.826740 -13.696389 6.597648 53.664143 9.934528 -11.012150 4.672674 -3.302598 14.098698 23.372093 8.663410 -3.691857 2.464508 -31.204264 8.448937 -0.637001 10.828679 -4.586362 1.194526 2.377156 -3.288455 -2.567031 -0.240098 -1.815016 -0.526145 7.167794 1.051833 -2.091302 14.274781 0.334267 0.113130 -8.072790 4.871105 2.799788 -21.489094 2.544182 -5.440127 
